<svg width="256" height="283" viewBox="0 0 256 283" fill="none" xmlns="http://www.w3.org/2000/svg">
<path fill-rule="evenodd" clip-rule="evenodd" d="M0 283L0 276L0 7L0 0H256V7V276V283H0ZM218 276H38L38 7H218L218 141.5V276ZM18 274C15.2386 274 13 271.761 13 269L13 261C13 258.239 15.2386 256 18 256H31C33.7614 256 36 258.239 36 261V269C36 271.761 33.7614 274 31 274H18ZM221 268C221 270.761 223.239 273 226 273H239C241.761 273 244 270.761 244 268V260C244 257.239 241.761 255 239 255H226C223.239 255 221 257.239 221 260V268ZM18 97C15.2386 97 13 94.7614 13 92V84C13 81.2386 15.2386 79 18 79H31C33.7614 79 36 81.2386 36 84V92C36 94.7614 33.7614 97 31 97H18ZM221 91C221 93.7614 223.239 96 226 96L239 96C241.761 96 244 93.7614 244 91V83C244 80.2386 241.761 78 239 78L226 78C223.239 78 221 80.2386 221 83V91ZM18 239C15.2386 239 13 236.761 13 234V226C13 223.239 15.2386 221 18 221H31C33.7614 221 36 223.239 36 226V234C36 236.761 33.7614 239 31 239H18ZM221 233C221 235.761 223.239 238 226 238H239C241.761 238 244 235.761 244 233V225C244 222.239 241.761 220 239 220H226C223.239 220 221 222.239 221 225V233ZM18 62C15.2386 62 13 59.7614 13 57V49C13 46.2386 15.2386 44 18 44H31C33.7614 44 36 46.2386 36 49V57C36 59.7614 33.7614 62 31 62H18ZM221 56C221 58.7614 223.239 61 226 61L239 61C241.761 61 244 58.7614 244 56L244 48C244 45.2386 241.761 43 239 43L226 43C223.239 43 221 45.2386 221 48L221 56ZM18 203C15.2386 203 13 200.761 13 198V190C13 187.239 15.2386 185 18 185H31C33.7614 185 36 187.239 36 190V198C36 200.761 33.7614 203 31 203H18ZM221 197C221 199.761 223.239 202 226 202H239C241.761 202 244 199.761 244 197V189C244 186.239 241.761 184 239 184H226C223.239 184 221 186.239 221 189V197ZM18 26C15.2386 26 13 23.7614 13 21V13C13 10.2386 15.2386 8 18 8H31C33.7614 8 36 10.2386 36 13V21C36 23.7614 33.7614 26 31 26H18ZM221 20C221 22.7614 223.239 25 226 25H239C241.761 25 244 22.7614 244 20V12C244 9.23859 241.761 7 239 7H226C223.239 7 221 9.23859 221 12V20ZM18 167C15.2386 167 13 164.761 13 162V154C13 151.239 15.2386 149 18 149H31C33.7614 149 36 151.239 36 154V162C36 164.761 33.7614 167 31 167H18ZM221 161C221 163.761 223.239 166 226 166H239C241.761 166 244 163.761 244 161V153C244 150.239 241.761 148 239 148L226 148C223.239 148 221 150.239 221 153V161ZM18 132C15.2386 132 13 129.761 13 127L13 119C13 116.239 15.2386 114 18 114H31C33.7614 114 36 116.239 36 119V127C36 129.761 33.7614 132 31 132H18ZM221 126C221 128.761 223.239 131 226 131L239 131C241.761 131 244 128.761 244 126V118C244 115.239 241.761 113 239 113L226 113C223.239 113 221 115.239 221 118V126Z" fill="black"/>
<path d="M4.63388 266.08C4.43999 266.132 4.26918 266.209 4.12145 266.311C3.97064 266.412 3.84292 266.537 3.73828 266.685C3.63364 266.832 3.55516 267.002 3.50284 267.192C3.44744 267.383 3.41974 267.593 3.41974 267.82C3.41974 268.279 3.53054 268.676 3.75213 269.011C3.97372 269.344 4.29687 269.601 4.72159 269.782C5.14323 269.964 5.65566 270.055 6.25888 270.055C6.86518 270.055 7.38222 269.967 7.81001 269.792C8.23781 269.616 8.56404 269.362 8.78871 269.03C9.01338 268.697 9.12571 268.294 9.12571 267.82C9.12571 267.402 9.058 267.048 8.92259 266.759C8.78409 266.466 8.58866 266.245 8.33629 266.094C8.08393 265.943 7.78693 265.868 7.44531 265.868L7.49609 265.443L7.49609 267.742H5.82955L5.82955 263.665H7.08061C7.92696 263.665 8.65175 263.846 9.25497 264.206C9.85819 264.563 10.3214 265.055 10.6445 265.683C10.9677 266.308 11.1293 267.026 11.1293 267.839C11.1293 268.741 10.9338 269.533 10.543 270.216C10.1521 270.9 9.59505 271.432 8.8718 271.814C8.14548 272.195 7.28374 272.386 6.28658 272.386C5.51101 272.386 4.82315 272.271 4.22301 272.04C3.61979 271.809 3.1089 271.487 2.69034 271.075C2.27178 270.659 1.95478 270.179 1.73935 269.635C1.52391 269.087 1.41619 268.497 1.41619 267.866C1.41619 267.319 1.49467 266.809 1.65163 266.338C1.80859 265.864 2.03018 265.446 2.31641 265.083C2.60263 264.717 2.94271 264.42 3.33665 264.192C3.73059 263.964 4.163 263.822 4.63388 263.767L4.63388 266.08ZM6.27273 251.965C7.31297 251.965 8.19472 252.165 8.91797 252.565C9.64122 252.965 10.1906 253.507 10.5661 254.19C10.9415 254.87 11.1293 255.634 11.1293 256.48C11.1293 257.329 10.94 258.094 10.5614 258.774C10.1829 259.454 9.63352 259.995 8.91335 260.395C8.1901 260.792 7.3099 260.99 6.27273 260.99C5.23248 260.99 4.35073 260.792 3.62749 260.395C2.90424 259.995 2.35488 259.454 1.9794 258.774C1.60393 258.094 1.41619 257.329 1.41619 256.48C1.41619 255.634 1.60393 254.87 1.9794 254.19C2.35488 253.507 2.90424 252.965 3.62749 252.565C4.35073 252.165 5.23248 251.965 6.27273 251.965ZM6.27273 254.301C5.6572 254.301 5.13707 254.389 4.71236 254.564C4.28764 254.736 3.96603 254.986 3.74751 255.312C3.529 255.635 3.41974 256.024 3.41974 256.48C3.41974 256.932 3.529 257.322 3.74751 257.648C3.96603 257.974 4.28764 258.225 4.71236 258.4C5.13707 258.573 5.6572 258.659 6.27273 258.659C6.88826 258.659 7.40838 258.573 7.8331 258.4C8.25781 258.225 8.57943 257.974 8.79794 257.648C9.01645 257.322 9.12571 256.932 9.12571 256.48C9.12571 256.024 9.01645 255.635 8.79794 255.312C8.57943 254.986 8.25781 254.736 7.8331 254.564C7.40838 254.389 6.88826 254.301 6.27273 254.301ZM6.27273 240.277C7.31297 240.277 8.19472 240.477 8.91797 240.877C9.64122 241.277 10.1906 241.819 10.5661 242.502C10.9415 243.182 11.1293 243.946 11.1293 244.792C11.1293 245.642 10.94 246.406 10.5614 247.086C10.1829 247.767 9.63352 248.307 8.91335 248.707C8.1901 249.104 7.3099 249.302 6.27273 249.302C5.23248 249.302 4.35073 249.104 3.62749 248.707C2.90424 248.307 2.35488 247.767 1.9794 247.086C1.60393 246.406 1.41619 245.642 1.41619 244.792C1.41619 243.946 1.60393 243.182 1.9794 242.502C2.35488 241.819 2.90424 241.277 3.62749 240.877C4.35073 240.477 5.23248 240.277 6.27273 240.277ZM6.27273 242.613C5.6572 242.613 5.13707 242.701 4.71236 242.876C4.28764 243.049 3.96603 243.298 3.74751 243.624C3.529 243.947 3.41974 244.337 3.41974 244.792C3.41974 245.244 3.529 245.634 3.74751 245.96C3.96603 246.286 4.28764 246.537 4.71236 246.713C5.13707 246.885 5.6572 246.971 6.27273 246.971C6.88826 246.971 7.40838 246.885 7.8331 246.713C8.25781 246.537 8.57943 246.286 8.79794 245.96C9.01645 245.634 9.12571 245.244 9.12571 244.792C9.12571 244.337 9.01645 243.947 8.79794 243.624C8.57943 243.298 8.25781 243.049 7.8331 242.876C7.40838 242.701 6.88826 242.613 6.27273 242.613ZM11 234.018V237.513H1.54545L1.54545 234.023C1.54545 233.06 1.73473 232.23 2.11328 231.535C2.48875 230.836 3.03042 230.297 3.73828 229.919C4.44306 229.54 5.28634 229.351 6.26811 229.351C7.25296 229.351 8.09931 229.54 8.80717 229.919C9.51503 230.294 10.0582 230.831 10.4368 231.53C10.8123 232.229 11 233.058 11 234.018ZM9.05185 235.228V234.106C9.05185 233.577 8.96259 233.129 8.78409 232.763C8.60251 232.393 8.30859 232.115 7.90234 231.927C7.49302 231.736 6.94827 231.641 6.26811 231.641C5.58795 231.641 5.04628 231.736 4.64311 231.927C4.23686 232.118 3.94448 232.399 3.76598 232.772C3.5844 233.141 3.49361 233.597 3.49361 234.138V235.228H9.05185ZM4.37997 217.253C4.04143 217.284 3.77829 217.421 3.59055 217.664C3.39974 217.904 3.30433 218.248 3.30433 218.694C3.30433 218.989 3.3428 219.236 3.41974 219.432C3.49669 219.629 3.60286 219.777 3.73828 219.876C3.87062 219.974 4.02296 220.025 4.19531 220.028C4.33688 220.034 4.46153 220.006 4.56925 219.945C4.67696 219.88 4.77237 219.788 4.85547 219.668C4.93549 219.545 5.00627 219.397 5.06783 219.225C5.12938 219.052 5.18324 218.858 5.2294 218.643L5.41406 217.831C5.51563 217.363 5.65104 216.95 5.82031 216.593C5.98958 216.233 6.19117 215.932 6.42507 215.689C6.65897 215.442 6.92827 215.256 7.23295 215.13C7.53764 215.004 7.87926 214.939 8.25781 214.936C8.85488 214.939 9.36731 215.09 9.7951 215.388C10.2229 215.687 10.5507 216.116 10.7784 216.676C11.0062 217.233 11.12 217.906 11.12 218.694C11.12 219.485 11.0015 220.174 10.7646 220.762C10.5276 221.35 10.1675 221.807 9.6843 222.133C9.20111 222.459 8.5902 222.627 7.85156 222.636L7.85156 220.448C8.15625 220.43 8.41016 220.348 8.61328 220.203C8.81641 220.059 8.97029 219.86 9.07493 219.608C9.17957 219.352 9.23189 219.057 9.23189 218.722C9.23189 218.414 9.19034 218.152 9.10724 217.937C9.02415 217.718 8.90874 217.55 8.76101 217.434C8.61328 217.317 8.44401 217.257 8.2532 217.253C8.07469 217.257 7.92235 217.312 7.79616 217.42C7.6669 217.527 7.55611 217.694 7.46378 217.918C7.36837 218.14 7.28066 218.423 7.20064 218.768L6.96982 219.756C6.78208 220.574 6.47893 221.219 6.06037 221.69C5.63873 222.161 5.06937 222.395 4.35227 222.392C3.76752 222.395 3.25509 222.238 2.81499 221.921C2.37488 221.604 2.03172 221.165 1.78551 220.605C1.5393 220.045 1.41619 219.406 1.41619 218.689C1.41619 217.957 1.54084 217.321 1.79013 216.783C2.03634 216.241 2.38258 215.821 2.82884 215.522C3.27509 215.224 3.79214 215.071 4.37997 215.065V217.253ZM11 210.599V213.055L1.54545 209.865L1.54545 206.823L11 203.633V206.089L3.92756 208.309V208.383L11 210.599ZM7.27912 210.927L7.27912 205.793H9.01491V210.927H7.27912ZM1.54545 195.465L1.54545 193.184H7.64382C8.3486 193.184 8.96259 193.352 9.4858 193.687C10.0059 194.023 10.4091 194.491 10.6953 195.091C10.9785 195.691 11.12 196.388 11.12 197.182C11.12 197.985 10.9785 198.687 10.6953 199.287C10.4091 199.887 10.0059 200.354 9.4858 200.686C8.96259 201.018 8.3486 201.185 7.64382 201.185H1.54545V198.899H7.44531C7.77154 198.899 8.06238 198.829 8.31783 198.687C8.57327 198.542 8.77332 198.341 8.91797 198.082C9.06262 197.824 9.13494 197.524 9.13494 197.182C9.13494 196.84 9.06262 196.542 8.91797 196.287C8.77332 196.028 8.57327 195.826 8.31783 195.682C8.06238 195.537 7.77154 195.465 7.44531 195.465H1.54545ZM4.97088 181.74V184.048C4.7339 184.079 4.52 184.142 4.32919 184.237C4.13838 184.333 3.97526 184.459 3.83984 184.616C3.70443 184.773 3.60133 184.959 3.53054 185.175C3.45668 185.387 3.41974 185.622 3.41974 185.881C3.41974 186.34 3.53208 186.735 3.75675 187.067C3.98142 187.397 4.30611 187.651 4.73082 187.829C5.15554 188.005 5.66951 188.092 6.27273 188.092C6.90057 188.092 7.42685 188.003 7.85156 187.824C8.2732 187.643 8.59174 187.389 8.80717 187.063C9.01953 186.733 9.12571 186.344 9.12571 185.895C9.12571 185.642 9.09339 185.413 9.02876 185.207C8.96413 184.998 8.87027 184.815 8.74716 184.658C8.62098 184.498 8.46863 184.367 8.29013 184.265C8.10855 184.161 7.90388 184.088 7.67614 184.048L7.68999 181.74C8.10855 181.78 8.52095 181.902 8.9272 182.105C9.33345 182.305 9.70431 182.58 10.0398 182.931C10.3722 183.282 10.6368 183.71 10.8338 184.214C11.0308 184.716 11.1293 185.292 11.1293 185.941C11.1293 186.797 10.9415 187.563 10.5661 188.24C10.1875 188.914 9.6366 189.446 8.91335 189.837C8.1901 190.228 7.3099 190.424 6.27273 190.424C5.23248 190.424 4.35073 190.225 3.62749 189.828C2.90424 189.431 2.35488 188.894 1.9794 188.217C1.60393 187.54 1.41619 186.781 1.41619 185.941C1.41619 185.369 1.49621 184.839 1.65625 184.353C1.81321 183.867 2.04403 183.439 2.34872 183.069C2.65033 182.7 3.02119 182.4 3.46129 182.169C3.9014 181.938 4.40459 181.795 4.97088 181.74ZM11 179.002H1.54545L1.54545 172.41H3.40128L3.40128 176.717H5.3402V172.747H7.20064V176.717H9.14418V172.41H11V179.002Z" fill="#F8C418"/>
<path d="M11 165.303H9.35653L6.33736 161.854C6.10346 161.596 5.88956 161.376 5.69567 161.194C5.4987 161.013 5.30173 160.874 5.10476 160.779C4.90471 160.683 4.68774 160.636 4.45384 160.636C4.19223 160.636 3.9691 160.693 3.78445 160.806C3.59671 160.92 3.45206 161.077 3.3505 161.277C3.24893 161.477 3.19815 161.707 3.19815 161.965C3.19815 162.227 3.25201 162.456 3.35973 162.653C3.46437 162.85 3.61671 163.004 3.81676 163.115C4.01681 163.222 4.25994 163.276 4.54616 163.276V165.441C3.90294 165.441 3.34742 165.297 2.87962 165.007C2.41181 164.718 2.05173 164.312 1.79936 163.789C1.54392 163.262 1.41619 162.652 1.41619 161.956C1.41619 161.239 1.53622 160.616 1.77628 160.086C2.01634 159.557 2.3518 159.148 2.78267 158.858C3.21046 158.566 3.7075 158.42 4.27379 158.42C4.63388 158.42 4.99089 158.492 5.34482 158.637C5.69875 158.781 6.08961 159.041 6.5174 159.417C6.94519 159.789 7.45762 160.319 8.05469 161.005L9.09801 162.136H9.15803V158.304H11V165.303ZM11.1293 151.793C11.1293 152.31 11.0462 152.805 10.88 153.279C10.7107 153.753 10.4429 154.175 10.0767 154.544C9.70739 154.913 9.22419 155.204 8.62713 155.417C8.02699 155.629 7.29605 155.734 6.4343 155.731C5.65566 155.728 4.95703 155.632 4.33842 155.444C3.71674 155.257 3.18892 154.989 2.75497 154.641C2.32102 154.29 1.99017 153.872 1.76243 153.385C1.5316 152.896 1.41619 152.35 1.41619 151.747C1.41619 151.085 1.54545 150.502 1.80398 149.997C2.05942 149.489 2.40412 149.083 2.83807 148.778C3.26894 148.473 3.74905 148.293 4.27841 148.238V150.486C3.97988 150.554 3.75367 150.703 3.59979 150.934C3.44283 151.162 3.36435 151.433 3.36435 151.747C3.36435 152.325 3.61517 152.758 4.11683 153.044C4.61849 153.327 5.28942 153.472 6.12962 153.478V153.418C5.84647 153.288 5.60334 153.102 5.40021 152.859C5.19709 152.616 5.04167 152.337 4.93395 152.024C4.82315 151.707 4.76776 151.371 4.76776 151.017C4.76776 150.451 4.89856 149.951 5.16016 149.517C5.42176 149.083 5.7803 148.743 6.2358 148.497C6.68821 148.25 7.20679 148.129 7.79155 148.132C8.45017 148.129 9.03184 148.283 9.53658 148.594C10.0382 148.904 10.4291 149.335 10.7092 149.886C10.9892 150.434 11.1293 151.069 11.1293 151.793ZM9.375 151.807C9.375 151.527 9.30883 151.276 9.17649 151.054C9.04415 150.833 8.86411 150.659 8.63636 150.532C8.40862 150.406 8.15163 150.345 7.86541 150.348C7.57611 150.345 7.31913 150.406 7.09446 150.532C6.86979 150.656 6.69129 150.828 6.55895 151.049C6.42661 151.268 6.36044 151.519 6.36044 151.802C6.36044 152.008 6.39891 152.201 6.47585 152.379C6.55279 152.558 6.66051 152.713 6.79901 152.845C6.93442 152.975 7.09446 153.076 7.27912 153.15C7.4607 153.224 7.65767 153.262 7.87003 153.265C8.15009 153.262 8.404 153.198 8.63175 153.072C8.85949 152.945 9.04107 152.773 9.17649 152.554C9.30883 152.336 9.375 152.087 9.375 151.807ZM11.1293 141.81C11.1293 142.53 11.0062 143.168 10.7599 143.725C10.5107 144.279 10.1675 144.716 9.73047 145.036C9.29344 145.357 8.79025 145.52 8.22088 145.526V143.227C8.42708 143.218 8.6102 143.151 8.77024 143.028C8.9272 142.905 9.05031 142.737 9.13956 142.525C9.22881 142.313 9.27344 142.071 9.27344 141.8C9.27344 141.529 9.22573 141.291 9.13033 141.085C9.03184 140.875 8.89796 140.712 8.72869 140.595C8.55634 140.478 8.35937 140.422 8.13778 140.425C7.91619 140.422 7.71922 140.485 7.54688 140.614C7.37453 140.743 7.24065 140.926 7.14524 141.163C7.04983 141.397 7.00213 141.674 7.00213 141.994V142.913H5.37713V141.994C5.37713 141.714 5.33097 141.468 5.23864 141.256C5.14631 141.04 5.01705 140.872 4.85085 140.752C4.68158 140.632 4.48769 140.574 4.26918 140.577C4.05682 140.574 3.87062 140.625 3.71058 140.729C3.54747 140.831 3.42128 140.974 3.33203 141.159C3.24278 141.34 3.19815 141.551 3.19815 141.791C3.19815 142.043 3.24278 142.273 3.33203 142.479C3.42128 142.682 3.54747 142.844 3.71058 142.964C3.8737 143.084 4.06297 143.147 4.27841 143.153L4.27841 145.337C3.7152 145.33 3.2197 145.173 2.7919 144.866C2.36103 144.558 2.02403 144.139 1.78089 143.61C1.53776 143.078 1.41619 142.471 1.41619 141.791C1.41619 141.114 1.53468 140.518 1.77166 140.005C2.00864 139.491 2.33179 139.09 2.74112 138.804C3.14737 138.518 3.60748 138.375 4.12145 138.375C4.65388 138.372 5.09245 138.546 5.43714 138.897C5.78184 139.244 5.9942 139.692 6.07422 140.24H6.14808C6.23426 139.507 6.47124 138.955 6.85902 138.583C7.2468 138.207 7.73153 138.021 8.31321 138.024C8.86103 138.024 9.3473 138.186 9.77202 138.509C10.1937 138.829 10.526 139.275 10.7692 139.848C11.0092 140.417 11.1293 141.071 11.1293 141.81ZM11.2308 131.395C11.2308 132.22 11.0354 132.93 10.6445 133.528C10.2506 134.125 9.68584 134.585 8.95028 134.908C8.21165 135.231 7.32375 135.391 6.28658 135.388C5.24941 135.385 4.3692 135.223 3.64595 134.903C2.91963 134.58 2.36719 134.122 1.98864 133.528C1.60701 132.93 1.41619 132.22 1.41619 131.395C1.41619 130.57 1.60701 129.859 1.98864 129.262C2.36719 128.662 2.91963 128.2 3.64595 127.877C4.37228 127.554 5.25249 127.394 6.28658 127.397C7.32682 127.397 8.21626 127.558 8.9549 127.882C9.69354 128.205 10.2583 128.665 10.6491 129.262C11.0369 129.856 11.2308 130.567 11.2308 131.395ZM9.36115 131.395C9.36115 130.902 9.11032 130.504 8.60866 130.199C8.10393 129.894 7.3299 129.744 6.28658 129.747C5.60334 129.747 5.04013 129.816 4.59695 129.954C4.15069 130.093 3.8183 130.285 3.59979 130.531C3.38127 130.778 3.27202 131.065 3.27202 131.395C3.27202 131.884 3.51977 132.28 4.01527 132.581C4.50769 132.883 5.2648 133.035 6.28658 133.038C6.97905 133.041 7.55303 132.975 8.00852 132.84C8.46402 132.701 8.8041 132.507 9.02876 132.258C9.25036 132.009 9.36115 131.721 9.36115 131.395Z" fill="#F8C418"/>
<path d="M1.54545 47.9311H11V50.2116H3.67827V50.267L4.97088 52.3814H2.99503L1.54545 50.0501V47.9311ZM11 44.411H9.35653L6.33736 40.9625C6.10346 40.704 5.88956 40.4839 5.69567 40.3023C5.4987 40.1208 5.30173 39.9823 5.10476 39.8869C4.90471 39.7914 4.68774 39.7437 4.45384 39.7437C4.19223 39.7437 3.9691 39.8007 3.78445 39.9145C3.59671 40.0284 3.45206 40.1854 3.3505 40.3854C3.24893 40.5855 3.19815 40.8148 3.19815 41.0733C3.19815 41.3349 3.25201 41.5642 3.35973 41.7611C3.46437 41.9581 3.61671 42.112 3.81676 42.2228C4.01681 42.3305 4.25994 42.3844 4.54616 42.3844V44.5495C3.90294 44.5495 3.34742 44.4048 2.87962 44.1155C2.41181 43.8262 2.05173 43.42 1.79936 42.8968C1.54392 42.3705 1.41619 41.7596 1.41619 41.0641C1.41619 40.347 1.53622 39.7237 1.77628 39.1944C2.01634 38.665 2.3518 38.2557 2.78267 37.9664C3.21046 37.674 3.7075 37.5278 4.27379 37.5278C4.63388 37.5278 4.99089 37.6002 5.34482 37.7448C5.69875 37.8895 6.08961 38.1495 6.5174 38.525C6.94519 38.8974 7.45762 39.4267 8.05469 40.1131L9.09801 41.2441H9.15803L9.15803 37.4124H11L11 44.411Z" fill="#F8C418"/>
<path d="M244.545 49.9311H254V52.2116H246.678V52.267L247.971 54.3814H245.995L244.545 52.0501V49.9311ZM254 46.411H252.357L249.337 42.9625C249.103 42.704 248.89 42.4839 248.696 42.3023C248.499 42.1208 248.302 41.9823 248.105 41.8869C247.905 41.7914 247.688 41.7437 247.454 41.7437C247.192 41.7437 246.969 41.8007 246.784 41.9145C246.597 42.0284 246.452 42.1854 246.35 42.3854C246.249 42.5855 246.198 42.8148 246.198 43.0733C246.198 43.3349 246.252 43.5642 246.36 43.7611C246.464 43.9581 246.617 44.112 246.817 44.2228C247.017 44.3305 247.26 44.3844 247.546 44.3844V46.5495C246.903 46.5495 246.347 46.4048 245.88 46.1155C245.412 45.8262 245.052 45.42 244.799 44.8968C244.544 44.3705 244.416 43.7596 244.416 43.0641C244.416 42.347 244.536 41.7237 244.776 41.1944C245.016 40.665 245.352 40.2557 245.783 39.9664C246.21 39.674 246.708 39.5278 247.274 39.5278C247.634 39.5278 247.991 39.6002 248.345 39.7448C248.699 39.8895 249.09 40.1495 249.517 40.525C249.945 40.8974 250.458 41.4267 251.055 42.1131L252.098 43.2441H252.158V39.4124H254V46.411Z" fill="#F8C418"/>
<path d="M244.455 195.491H251V197.07H245.931V197.108L246.826 198.572H245.458L244.455 196.958V195.491ZM244.455 190.027H251V191.606H245.931V191.644L246.826 193.108H245.458L244.455 191.494V190.027ZM251 186.162V187.862L244.455 185.653V183.547L251 181.339V183.039L246.104 184.576V184.627L251 186.162ZM248.424 186.388V182.834H249.626V186.388H248.424Z" fill="#F8C418"/>
<path d="M249 208L252.5 187H253.5L256 208H249Z" fill="#F8C418"/>
</svg>
